# xmcd
#
# Track frame offsets:
# 150
# 11714
# 25880
# 40604
# 58578
# 73517
# 88241
# 100334
# 113767
# 127029
# 140250
#
# Disc length: 1930 seconds
#
#
# Revision: 0
# Processed by: cddbd v1.5.2PL0 Copyright (c) Steve Scherf et al.
# Submitted via: FreeRIP 2.945 
#
DISCID=9207880b
DTITLE=Bill Anderson - Singing His Praise
DYEAR=1900
DGENRE=Country
TTITLE0=Swing Low Sweet Chariot
TTITLE1=Take My Hands Precious Lord
TTITLE2=Old Country Chrurch
TTITLE3=Nearer My God To Thee
TTITLE4=Just A Closer Walk With Thee
TTITLE5=Where No One Stands Alone
TTITLE6=Precious Memories
TTITLE7=Old Rugged Cross
TTITLE8=Beyond The Sunset
TTITLE9=Peace In The Valley
TTITLE10=Peace In The Valley
EXTD=
EXTT0=
EXTT1=
EXTT2=
EXTT3=
EXTT4=
EXTT5=
EXTT6=
EXTT7=
EXTT8=
EXTT9=
EXTT10=
PLAYORDER=
